<?xml version="1.0" encoding="UTF-8"?>
<svg width="632px" height="537px" viewBox="0 0 632 537" version="1.1" xmlns="http://www.w3.org/2000/svg" xmlns:xlink="http://www.w3.org/1999/xlink">
    <title>logo-black</title>
    <g id="logo-black" stroke="none" stroke-width="1" fill="none" fill-rule="evenodd">
        <g id="She-Rides-Strong-Logo" fill="#000000" fill-rule="nonzero">
            <path d="M119.915461,13.3998996 C120.989485,14.4061092 121.530793,15.8251226 122.372828,17.020534 L120.714535,16.7195311 C119.219493,28.0200382 119.296823,39.4667467 117.449502,50.7328535 C116.641835,54.9296933 116.916786,59.7629391 113.909518,63.1599713 C113.136221,63.125571 112.371515,63.0997707 111.615402,63.0825705 C109.673567,60.6057471 109.347063,57.4667173 109.037744,54.4566888 C108.797163,54.5512897 108.324592,54.7404915 108.084011,54.8350924 L108.951822,55.0758947 C108.74561,56.9335123 108.573766,58.7997299 108.453475,60.6659476 C105.618051,60.7605485 104.406552,57.853721 102.284281,56.5293084 C102.198359,57.1743145 102.026515,58.4729269 101.940593,59.126533 C95.2816431,56.5809089 91.8877267,50.1136476 87.8322116,44.7471968 C90.031813,49.2450394 92.8070914,53.4160789 95.1355758,57.8451209 C91.810397,58.0257226 88.4594417,57.114114 85.6583867,55.3424972 C83.8540261,53.9922844 82.513644,52.1432669 80.8725351,50.6210524 C82.2558782,53.1666766 83.9141714,55.5746994 85.8989681,57.6989195 C85.761493,58.1203235 85.495135,58.9545314 85.3662521,59.3759354 C84.6874688,59.7285388 84.0172778,60.0897422 83.3556789,60.4509456 C87.4885238,60.6659476 91.6213688,61.121752 95.7628059,60.8723496 C95.7885825,60.2875441 95.8401356,59.1093329 95.8659122,58.5245273 C100.2823,61.4055546 104.973637,64.0285795 110.051623,65.5163936 C114.880436,66.608604 119.863908,65.6883952 124.649759,64.7767866 C128.249888,64.1059802 131.746911,62.8847687 134.883062,60.9755506 C133.216176,62.5837658 131.523514,64.1661808 129.762114,65.662595 C135.579029,66.4624026 142.384046,66.9096068 147.187082,62.8761686 C149.257801,61.2765534 151.105122,59.4189358 153.064142,57.6731193 C149.824886,63.2201718 146.774657,70.9086447 139.325225,71.3472489 C139.89231,71.5278506 141.035072,71.8804539 141.610749,72.0610556 C142.00599,73.8498726 140.510948,75.3892872 139.909495,77.0061025 C139.153382,76.8771013 138.397269,76.7567001 137.649748,76.636299 C136.283589,77.5995081 134.951799,78.7175187 133.302098,79.1475228 C127.253194,79.7753288 121.212882,78.7949195 115.189755,78.3477152 C110.206283,77.900511 105.420431,76.3008958 100.436959,75.8880919 C105.867225,77.3587059 111.297491,79.0099215 116.93397,79.5517266 C122.304091,79.801129 127.674211,80.2139329 133.052924,80.3859345 C132.924042,81.701747 132.786566,83.0261596 132.657684,84.341972 C132.107783,85.6577845 131.566475,86.9821971 130.956429,88.2722093 L132.60613,88.1518082 C129.203622,95.7714804 126.625964,103.812557 122.312683,110.985025 C117.793189,116.970681 111.993459,123.17994 104.054272,123.876547 C106.382757,124.074349 108.891677,124.108749 110.876474,122.638135 C116.066158,119.129302 120.353663,114.468058 124.632575,109.935815 C127.897608,105.119769 129.598863,99.4437152 131.953124,94.154665 C133.147439,91.8756434 132.855304,89.2354184 133.594233,86.8445958 C134.238647,84.5397739 136.438249,83.3271624 138.242609,82.0285501 C137.598195,85.2535807 136.67883,88.4184107 136.223444,91.6864417 C138.921392,91.3682386 140.803083,89.2354184 143.097198,88.0228069 C144.566463,87.1713989 145.984175,88.5302117 147.152713,89.2870189 C153.261763,93.9912635 159.018532,99.1857127 164.216809,104.878967 C172.284879,114.511058 174.750838,127.282179 176.675489,139.356693 C177.440195,143.21813 172.757449,144.748945 170.282898,146.709763 C175.38666,145.591753 180.447462,147.363369 184.322541,150.708801 C181.461341,151.113005 178.582956,151.353807 175.73894,151.818212 C179.356254,151.818212 183.050897,151.878412 186.522143,153.056623 C186.693987,153.297426 187.046267,153.76183 187.226703,154.002632 C183.772641,154.415436 180.309987,154.699239 176.890294,155.318445 C174.389966,157.98447 176.959032,162.23291 176.486461,165.526742 C179.717126,165.40634 183.042305,165.32034 186.169863,166.300749 C183.033712,166.876954 179.665573,166.687753 176.838741,168.373369 C176.125589,173.378616 177.560485,178.315063 178.7548,183.131108 C179.837416,186.880744 181.005955,190.819581 183.721088,193.752209 C185.791806,195.97963 186.986121,198.809057 188,201.638484 C186.11831,201.500882 184.073368,200.890277 182.303376,201.819086 C180.662267,203.797104 180.301395,206.445929 179.528097,208.819552 C177.543301,216.559625 175.46399,224.299699 173.917395,232.134373 C174.527441,236.124811 176.383355,239.900246 176.194327,244.028286 C178.7548,242.772674 181.813621,244.140087 182.784539,246.763111 C181.478525,247.65752 179.966299,248.328326 178.900867,249.523738 C177.508932,251.794159 177.380049,254.554785 176.434908,257.005809 C174.879721,259.164429 172.645751,260.695244 170.91872,262.707663 C172.826187,262.140057 174.957051,262.079857 176.684082,261.065047 C179.364846,258.098019 180.576345,254.141981 182.990751,250.994352 C183.592205,249.970942 184.743559,249.678539 185.783214,249.308736 C186.290154,250.452546 187.166557,251.613557 186.788501,252.95517 C185.456711,255.259992 183.918708,257.444413 182.586918,259.749235 C183.935893,258.777425 185.362197,257.891617 186.977529,257.435813 C186.341707,259.955637 185.41375,262.38086 184.683413,264.874883 L186.986121,263.301068 C186.736948,265.313487 184.915403,266.474498 183.549244,267.74731 C181.169206,269.630728 179.081303,271.849549 176.735635,273.775968 C175.146079,275.212181 172.843371,274.773577 170.901536,275.14338 C172.276286,275.556184 173.685406,275.762586 175.128895,275.925988 C174.828168,280.33783 174.321228,284.732471 173.822881,289.118513 C173.169875,292.102741 170.007947,293.298153 167.541988,294.441963 C165.127582,293.771157 163.486473,291.887739 162.060169,289.952721 C161.957062,284.027265 167.103786,279.013417 165.600152,272.924559 C164.457391,270.955141 162.274974,269.622128 161.604782,267.411907 C160.943184,261.718653 155.787868,257.642215 155.358258,251.88016 C156.002672,249.945142 157.102473,248.225125 158.116352,246.479309 C151.52614,245.774102 145.193693,243.39188 138.500375,243.538081 C140.614054,244.54429 143.140159,244.982895 144.815637,246.728711 C144.970296,251.733959 142.298124,256.352202 142.169241,261.35745 C141.859922,265.081285 143.122975,269.415726 146.525483,271.385145 C149.103141,272.356954 151.294151,270.215534 153.356277,269.020122 C153.528121,272.597756 153.287539,276.321592 154.576368,279.735824 C155.701946,282.272848 157.291501,284.58627 158.322565,287.183495 C159.723092,285.876282 160.925999,284.371268 161.914101,282.737252 C161.561821,286.263286 161.304056,289.83232 160.212847,293.229352 C158.219458,298.621603 161.175173,304.60726 158.425671,309.836109 C158.219458,309.990911 157.807033,310.291914 157.60082,310.446715 C161.037698,311.771128 161.467307,315.873367 160.934591,319.038197 C159.628578,327.079273 157.068104,334.888147 153.691373,342.292817 C151.500363,347.306664 151.72376,354.100729 146.336455,357.076357 C142.90817,359.587581 138.655034,358.555571 134.771363,358.263168 C138.99013,359.905784 143.543992,360.146586 148.003341,359.553181 C145.313984,364.085423 142.856617,368.738068 140.296143,373.339111 C138.096542,376.994146 137.632563,381.328587 136.446841,385.353425 C137.134216,386.290834 137.85596,387.219643 138.603481,388.131251 C137.03111,388.354854 135.493107,388.759057 134.006658,389.300862 C134.393307,391.09828 135.991454,391.880887 137.486496,392.646294 C137.254507,394.727514 136.352327,396.628132 135.14942,398.322348 C136.87645,399.792962 138.826878,400.971173 140.906189,401.891382 C140.863228,404.987411 140.880412,408.238242 139.522846,411.102069 C135.450146,413.544492 130.380752,412.650084 126.37679,415.178508 C123.524182,416.786723 120.525507,418.420738 118.446196,421.026563 C116.495768,423.692588 117.449502,427.218622 118.351682,430.099649 C119.537404,428.869838 120.791865,427.708827 122.115062,426.625216 C124.950486,429.274041 127.906201,431.940067 131.454776,433.608482 C134.513597,434.812494 137.709893,433.522482 140.39925,432.034668 C138.44023,435.629502 134.857285,437.58172 130.922061,438.243926 C130.217501,439.267336 129.762114,440.952952 128.232704,440.944352 C123.214863,441.666759 118.738331,439.232936 114.304759,437.358118 C112.362923,438.60513 110.180506,439.284536 107.860614,439.017934 C106.941249,437.994524 106.245282,436.799113 105.901594,435.4661 C105.626644,436.618511 105.17985,437.684921 104.55262,438.682531 C103.547333,435.165097 105.935963,429.996448 101.932001,427.898028 C100.608803,426.823018 99.1223534,428.310832 97.9108542,428.861237 C97.6530884,430.830656 97.4039148,432.817275 97.369546,434.812494 C96.8626066,434.253489 96.3556672,433.694483 95.8659122,433.135478 C96.3212984,430.933857 97.3781382,428.457034 95.5222245,426.625216 C96.7680925,429.282641 93.6834951,433.470881 97.3523616,434.855494 L94.7832959,435.122097 C95.3331962,435.104897 96.4415891,435.061896 97.0000817,435.044696 C94.1131048,451.651453 91.3979717,468.284011 88.4852182,484.882168 C86.1481417,498.496097 83.759512,512.127227 80.2281206,525.491753 C79.0939511,529.017787 78.2261395,532.879223 75.6484816,535.67425 C72.7700969,537.82427 68.6372519,537.170664 65.9049345,535.063644 C64.5731445,530.531401 65.0972683,525.715355 65.3894029,521.079912 C65.750275,524.06414 66.197069,527.039768 66.9274055,529.963796 C69.7714214,526.472163 70.6650095,521.810918 72.1256824,517.631279 C71.2235021,519.076093 70.0807404,522.02592 67.9155077,520.555307 C67.4515293,519.377095 67.1508025,518.147284 66.9789586,516.900272 C65.7846438,505.900768 67.2023557,494.875463 68.0959437,483.918959 C68.6372519,476.858292 69.3933649,469.823426 69.9003043,462.762759 C69.8229746,456.940504 71.2922396,451.23865 71.2235021,445.416394 C70.5361266,447.893218 69.6511307,450.395842 70.3213218,452.993066 C68.9379787,468.550614 67.0906571,484.108161 65.3808107,499.657108 C64.9769776,503.466945 63.6795564,507.21658 61.4713628,510.35561 C59.7872929,512.944234 55.654448,512.789433 53.8844562,510.36421 C51.9683971,508.403391 51.9855815,505.530964 51.7278157,502.98534 C52.140241,503.346543 52.9650915,504.06895 53.3775168,504.430154 C57.8884182,492.639442 60.1137963,480.109123 61.9181568,467.664805 C62.5625713,463.674367 62.8890747,459.649529 63.4303828,455.650491 C62.9664044,455.616091 62.0298553,455.55589 61.5658769,455.52149 C61.3768487,462.212354 60.680881,468.886017 59.7099632,475.50808 C59.2717613,477.443098 59.2373925,479.79092 57.4759929,481.098133 C57.0377911,480.109123 56.6253658,479.111514 56.2387171,478.122504 C56.7370643,480.711129 55.1904695,484.03936 57.3814788,486.06038 C56.4878907,487.092389 55.4482353,488.012598 54.0820766,488.339401 C53.6610592,486.172181 53.2915948,484.00496 53.0510134,481.820539 C51.8051454,483.316954 48.9783139,483.514755 49.1243811,480.951931 C48.2050165,480.926131 47.294244,480.908931 46.3748793,480.891731 C45.3781849,480.590728 44.3127529,479.567318 43.2559132,480.272525 C41.0305351,481.459336 38.4786538,481.115333 36.090024,480.771329 C32.4211575,480.169324 28.6835535,479.962922 25.0748323,479.025513 C23.236103,477.959103 24.4304179,475.198477 22.6518339,473.942865 C22.8408621,472.721653 23.0384826,471.509042 23.2532874,470.29643 C20.3233495,467.252001 16.164728,463.99257 16.7919581,459.262526 C17.2817131,455.633291 21.0536859,453.681073 24.3187193,453.096267 C24.3444959,453.904675 24.3960491,455.50429 24.4218257,456.312698 C22.9783372,456.321298 21.010725,455.908494 21.6121785,458.092915 C23.0384826,457.920913 25.3669669,458.892722 26.0715268,457.112505 C27.0510368,455.263488 25.6762859,453.44027 25.0060948,451.771855 C24.971726,452.029857 24.9115807,452.545862 24.8772119,452.803864 C23.3563937,452.700663 21.8269833,452.649063 20.3061651,452.631863 C20.2717963,451.814855 20.1858744,450.172239 20.1429134,449.355232 L21.6723238,449.957237 C24.0609535,449.19183 21.50048,447.10201 20.1171369,447.643815 C20.0140305,442.242964 25.5302186,439.404937 26.4323989,434.38249 C27.1197743,431.183259 26.793271,427.829228 27.9446249,424.724598 C29.5427728,420.046154 28.795252,415.040906 28.795252,410.199061 C28.5546706,406.114022 28.9069505,402.028983 28.8897661,397.943944 C29.4138899,401.229176 29.6716557,404.540207 30.1098576,407.842638 C31.639268,404.290805 32.7648453,400.575569 34.354401,397.058136 C35.5057549,394.787714 38.3841396,395.080117 40.5150035,394.693114 C36.6485166,393.747105 32.6875155,393.127899 29.0014646,391.579884 C27.4376855,381.913392 28.4000111,372.074899 28.2797204,362.331007 C29.2162695,350.299493 28.1766141,337.708973 33.0483876,326.365466 C34.5949824,321.970824 38.1521504,318.582392 39.2433589,313.998549 C41.3484463,306.129474 42.9637786,297.993797 42.8520801,289.81512 C41.3656307,279.409021 38.1435582,269.286725 37.3616686,258.760225 C34.2169259,260.29964 32.1462074,263.215067 30.9089315,266.422898 C29.7146167,270.378935 30.0583044,274.541375 29.7833542,278.609213 C29.2592304,283.347858 20.9935406,284.56047 19.721896,279.649823 C18.3127763,274.300573 20.0913603,268.873921 21.4747034,263.731072 C19.0517049,261.993856 16.4139016,260.497442 14.3517752,258.330221 C12.8996946,256.902608 13.5441091,254.718187 13.58707,252.93797 C15.4172072,253.96138 17.1528302,255.148191 18.879861,256.352202 C16.4482704,253.015371 11.0180042,249.558138 14.2228923,244.931294 C13.3121198,243.030676 12.5989678,241.035457 12.6591132,238.902637 C13.9307577,238.429633 15.2281789,238.016829 16.5427845,237.672825 C16.8005503,239.367041 17.1270536,241.052657 17.5480711,242.712473 C17.6683618,240.622653 17.676954,238.532833 17.7628759,236.443014 C19.678935,235.0412 22.9353762,234.783198 23.5282376,232.151573 C20.2202432,232.074172 17.4191882,233.845789 15.5546823,236.477414 C12.341202,229.992953 8.86136375,223.637492 5.55336937,217.204631 C2.27115156,211.193174 -0.452573686,204.485111 0.0629579063,197.510445 C1.97901699,199.402463 2.12508428,202.30069 3.25925378,204.648512 C1.49785417,197.734047 -0.332282981,190.595979 0.879216261,183.423511 C3.31939913,169.869783 11.3530998,158.259673 15.5289057,145.30795 C17.4363726,142.14312 19.0602971,138.711687 21.4747034,135.916661 C27.3517635,137.679678 32.7562531,140.732707 38.6419054,142.504323 C33.2975612,139.666296 27.8501107,137.026071 22.437029,134.334246 C28.2797204,123.394942 29.9036449,109.892814 39.3206887,101.112131 C36.2790523,106.461382 32.8937282,111.784832 31.1838817,117.736089 C34.0107133,115.491467 36.3306054,112.705041 38.7364195,110.030416 C46.7787124,100.682127 54.7178989,91.0328355 64.6676587,83.6195652 C62.2102914,83.6109651 59.4693818,83.1207605 57.3127413,84.6257747 C51.7450001,88.2636092 46.8818187,92.8388526 41.7608716,97.0614926 C42.6974206,93.6816606 43.8144057,90.353429 45.2664864,87.1627988 C46.9505563,83.4647637 49.78598,80.4977356 52.3894146,77.4361066 C46.2631808,75.3806871 40.7298084,70.7194429 38.7965649,64.398383 C40.3775285,66.4280023 42.0959671,68.3802208 44.2783842,69.7992342 C42.5513533,67.1160088 41.0047586,64.2263814 40.7899537,60.9755506 C41.6405809,59.9951413 42.4740236,59.0061319 43.2902819,57.9999224 C42.7060128,58.0601229 41.5374745,58.1891242 40.9532054,58.2493247 C40.9532054,56.8561115 41.2281556,55.531699 41.7608716,54.2760871 C43.6253775,54.1556859 42.9465942,57.432317 44.9915362,57.3635163 C45.472699,58.7223292 47.0107016,58.911531 48.1276867,59.4963366 C50.8943729,60.6057471 53.3947012,62.2741629 56.0410967,63.6415758 C53.3345558,60.700348 49.8719019,58.7051291 46.49517,56.6755098 L45.6445429,55.5402991 C46.1686667,55.428498 47.2169142,55.222096 47.741038,55.1188951 C47.5520098,53.4590793 45.5328444,52.4614699 44.5275578,51.1800577 C43.8573667,51.2402583 42.5169846,51.3434593 41.8467935,51.3950598 C42.181889,49.2278392 42.9637786,47.1810198 43.8144057,45.1686008 C44.0893559,45.1428005 44.6220719,45.0825999 44.8970221,45.0481996 C44.8454689,47.3874218 44.8368767,49.8556452 46.49517,51.7132628 C50.2241819,47.8518262 50.3702492,41.7887687 54.2109595,37.8843317 C53.6438748,40.7309587 51.787961,43.405584 52.3464536,46.4070125 C52.6987335,48.3850312 52.4753365,50.3544499 52.0800956,52.3066684 C54.0648922,49.0644377 56.3418234,45.8394071 57.1924506,42.0639713 C58.2922513,37.9875327 58.3438045,33.7390924 59.1428784,29.6110533 C60.5004449,34.220697 61.6088379,39.0195425 60.4660762,43.818388 C63.8514003,43.3281833 67.2539088,43.1647818 70.6736017,43.0959811 C73.2426675,42.5455759 74.8322232,40.1375531 76.868573,38.6669391 C76.2843039,41.8059689 76.155421,45.0223994 76.5850306,48.1958294 C76.6709526,41.6597675 77.4700265,34.2464972 82.8573317,29.7830549 C83.4673774,33.2144874 83.9227636,36.6889204 84.696061,40.0945527 C84.9881956,36.121315 83.4845618,32.1738776 84.472664,28.2264402 C84.8507205,24.1672017 88.1071617,20.9077708 91.8963189,19.7811601 C94.2076189,17.5193387 96.7079471,15.3521181 99.9214274,14.49211 L98.2975029,15.3521181 C98.7872579,15.7993224 99.2856051,16.2465266 99.7839523,16.6937309 C101.923408,15.7305217 104.277669,15.4295189 106.554601,14.9651145 C106.202321,21.4323758 105.059559,27.9082372 105.755527,34.3926986 C106.219505,38.2455351 106.296835,42.1413721 107.035763,45.9598083 C107.284937,42.7605779 107.68877,39.5871478 108.135564,36.4137178 C109.458762,36.1729155 110.790552,35.9235131 112.122342,35.6569106 C110.945211,35.5623097 109.768081,35.4763089 108.599543,35.3989082 C108.66828,31.2966693 108.702649,27.1686301 109.166627,23.0835914 C110.756183,21.458176 113.402579,22.0687818 115.447521,21.3205747 C113.505685,21.0281719 111.538073,20.8389702 109.690751,20.1509636 C110.489825,17.7859412 110.945211,14.6899119 113.617383,13.6923024 C115.593588,12.9784956 117.887703,12.7118931 119.915461,13.3998996 Z M95.0414416,23.7042254 C94.6592979,30.9742805 97.0103125,37.9528475 98.3810454,45 C98.3312006,38.3472137 96.8358556,31.7887324 96.8690855,25.1187998 C98.8628788,23.8928353 100.964669,22.8640539 103,21.6981017 C100.981284,21.9895897 99.0041059,22.5382731 97.0601574,23.1383956 C97.3841488,22.0324556 98.0404391,19.8205756 98.372738,18.7146356 C97.9739793,18.1402327 97.5835281,17.5658298 97.1847694,17 C96.1297205,19.0832823 95.082979,21.2951623 95.0414416,23.7042254 Z M91.7245841,132.602637 C90.7116451,133.303202 91.207024,134.6742 91,135.706215 C91.3696858,135.781544 92.1238447,135.932203 92.5009242,136 C92.4343808,134.900188 92.3678373,133.800377 92.3012939,132.708098 C92.974122,132.753296 94.3271719,132.858757 95,132.903955 C94.9778189,132.685499 94.9408503,132.248588 94.9186691,132.030132 C93.8096118,132.022599 92.7079482,132.015066 91.6062847,132 L91.7245841,132.602637 Z M51.0547124,146.097098 C48.2017988,146.811892 45.6505527,145.141169 43.1768784,143.995777 C45.0385985,145.838739 47.8397976,146.794668 49.1929923,149.051005 C44.7196927,159.368149 38.0054338,168.565737 30.9808881,177.30689 C27.6539254,181.251174 25.2578227,186.004984 24.2062957,191.060212 C22.6979577,190.48321 21.9998126,188.907219 21,187.761826 C22.3187184,192.102261 24.3959153,196.502979 23.8873899,201.136221 C23.4219599,201.256789 22.4997189,201.515148 22.042908,201.644328 C23.0082443,209.33482 25.4215852,216.732505 27.6194491,224.138803 C31.6014615,220.030891 30.386172,213.589135 33.7303729,209.076461 C35.3852352,208.981729 37.0400974,208.921445 38.7035788,208.869773 C38.7208169,209.412328 38.7552932,210.480213 38.7725314,211.022767 C40.9962526,215.345978 40.7462994,220.306474 41.4444444,225 C41.9271126,220.917925 42.3408282,216.835849 42.8579726,212.762386 C43.1941165,210.936647 41.4789207,209.265924 42.2460184,207.50047 C43.8060708,203.099751 45.3661233,198.707645 46.8916995,194.298314 C48.348323,185.33325 47.9001312,176.04093 50.4599963,167.265329 C53.0801949,161.11638 55.1142964,154.6574 58.6308788,148.939049 C60.9838861,145.468424 64.0264193,142.540353 67,139.612282 C64.4228968,136.227776 60.6735994,133.248034 56.1313472,134.169515 C54.6833427,138.25159 52.8302417,142.161426 51.0547124,146.097098 Z M96.6398537,139.676636 C96.0840951,139.661682 94.9652651,139.616822 94.4095064,139.601869 C94.3071298,139.953271 94.1023766,140.648598 94,141 C95.250457,140.917757 96.5009141,140.842991 97.7586837,140.745794 C97.8464351,139.497196 97.9268739,138.248598 98,137 C97.678245,137.082243 97.0274223,137.231776 96.6983547,137.314019 C96.6837294,137.904673 96.654479,139.085981 96.6398537,139.676636 Z M125,161.031765 C133.028905,159.890902 141.023717,157.686962 148.115064,153.598869 C146.555309,156.831314 144.057995,159.441471 141.05781,161.334266 C146.512692,161.239194 150.390773,157.11653 153.89383,153.417368 C153.041505,156.995529 151.183435,160.547762 151.959051,164.324711 C152.581249,167.833729 153.646656,171.230389 154.388179,174.704836 C154.379655,176.407488 156.007597,177.072991 157.149713,177.928639 C155.607004,178.620071 153.748935,179.078145 152.956272,180.746225 C154.771725,181.109227 156.570132,181.584586 158.308875,182.258733 C155.572911,182.950165 152.956272,184.004599 150.450435,185.292391 C153.47619,185.862823 156.732073,186.148039 159.357236,187.937119 C156.024643,189.086625 151.942005,188.974268 149.350936,191.653567 C148.166203,195.395944 149.947563,199.337107 149.350936,203.165913 C149.28275,205.905713 147.765611,208.887514 149.291273,211.463099 C150.27997,212.526176 151.822679,212.171817 153.118214,212.361961 C156.075783,212.44839 158.982212,213.087965 161.820456,213.891755 C157.908282,214.349829 153.723365,213.304037 150.041319,215.06719 C149.333889,215.51662 148.251436,215.853694 148.336669,216.899485 C150.603854,218.19592 154.158051,216.579697 155.726329,218.904638 C153.1864,219.509641 149.921994,218.46385 147.84232,220.33936 C147.492866,225.144814 146.79396,229.907053 145.609227,234.582863 C150.72318,234.453219 155.862702,235.576796 160.942561,234.591506 C161.794886,231.004701 162.06763,227.314182 162.570502,223.666877 C162.843246,220.849291 165.519548,219.457784 167.173059,217.521774 C168.997035,215.084475 169.832314,212.024888 171,209.276445 L167.965722,213.969541 C168.102094,210.158021 168.639059,206.147714 167.403187,202.491767 C166.815082,200.080397 166.209931,197.669027 165.26385,195.378658 C163.473967,192.725287 162.758014,189.536056 161.769316,186.528326 C157.217899,172.492253 157.695201,157.531389 155.760422,143.028599 C151.447656,142.631026 148.600889,146.468474 145.583658,148.948987 C140.00945,154.91259 132.227719,157.764748 125,161.031765 Z M72.9171576,221.893968 C70.783137,220.916963 68.5729013,220.118368 66.3626657,219.336765 C63.6866716,222.182821 61.3155376,225.292244 58.9359352,228.384676 C56.056701,228.282727 53.1774669,228.214762 50.306701,228.095822 C47.2072901,227.526611 44.0824742,227.110322 41,226.481641 C41.9315169,227.127313 42.7952872,227.976882 43.9215758,228.274232 C51.9241532,229.574072 60.0791605,228.860434 68.1071429,229.896909 C74.416053,230.075318 80.6741532,231.094801 87,230.992853 C85.1539028,230.687008 83.3162739,230.423641 81.4701767,230.160275 C80.140648,223.406201 80.1321797,216.125393 76.6940353,210 C73.306701,211.690643 70.7153903,214.562186 68.9709131,217.892497 C70.1649485,219.328269 71.4351988,220.730058 72.9171576,221.893968 Z M70.6334183,242.385143 C67.8813251,242.662899 65.1292319,242.949334 62.3771387,243.287848 C66.4310157,250.101534 71.4197306,257.097497 70.8605752,265.447517 C71.4808882,270.907146 67.9774299,277.260799 72.0138333,282 C74.7834001,279.803997 76.1550783,276.470933 77.7014925,273.406944 C79.8157991,269.014937 81.4408446,264.258377 81.1612668,259.32822 C80.8554787,254.293904 81.0826356,248.58256 77.2384419,244.711344 C78.6363305,244.98042 80.042956,245.223456 81.4583182,245.475172 C81.6243174,243.852039 81.8165271,242.228906 82,240.614453 C74.0232981,239.746468 65.9941755,239.494752 58,239 C61.9752457,240.79673 66.8853295,239.746468 70.6334183,242.385143 Z M113.284367,261.883343 C112.361732,267.533847 109.759203,272.72922 108.140238,278.173626 C107.93134,286.022503 108.157647,293.888555 108.053197,301.746019 C109.289181,302.123864 110.525164,302.484534 111.769852,302.870967 C111.726332,305.85938 111.656699,308.899317 112.648967,311.776093 C113.397521,314.670044 112.004863,317.529646 110.150888,319.710844 C108.880088,318.980915 107.940044,317.873142 107,316.808305 C109.471967,322.22695 109.480671,328.212362 109.680866,334.034614 C109.750499,359.204262 109.767907,384.365321 109.898469,409.534969 C109.898469,414.026175 109.585121,418.517381 110.011622,423 C111.003891,414.807628 111.395575,406.555143 112.326915,398.362771 C112.727304,394.309522 114.92074,390.788691 116.600633,387.173399 C117.262146,383.729854 117.148992,380.011513 119.133529,376.954402 C121.962365,372.48037 122.275713,367.130425 123.433359,362.123975 C126.175154,351.947915 121.988477,341.617282 122.571653,331.355348 C123.62485,321.668769 126.645176,312.351448 128.934357,302.913904 C129.413083,298.886417 127.115198,295.116552 127.150014,291.089065 C126.923707,284.717219 125.069732,278.611583 123.546513,272.471598 C122.684806,265.034916 124.591006,257.623996 124.721568,250.195902 C124.181913,252.136652 123.825044,254.103165 123.450768,256.078266 C123.207053,255.906518 122.710918,255.563022 122.467203,255.391274 C120.386921,251.827506 118.959447,247.885893 117.584198,244.004392 C115.060006,243.94428 112.605447,244.493873 110.638318,246.108303 C109.959397,251.595647 113.519378,256.438936 113.284367,261.883343 Z M89,262.593381 C89.4778157,262.701259 90.4419795,262.90042 90.9197952,263 C90.8856655,262.269745 90.8259386,260.800938 90.7918089,260.062385 C91.8242321,260.103877 92.8651877,260.145368 93.9146758,260.203457 C93.9317406,259.738749 93.9744027,258.825931 94,258.369522 C93.6757679,258.411014 93.0443686,258.485699 92.7286689,258.52719 C92.0631399,257.979499 91.0904437,257.772041 90.3566553,258.32803 C88.4709898,258.900616 89.2559727,261.166065 89,262.593381 Z M95.6361905,266.016158 L94.8285714,265.953321 L94.8209524,266.922801 C94.3866667,266.815081 93.5104762,266.608618 93.0761905,266.500898 C93.0533333,266.877917 93.0152381,267.62298 93,268 C94.3180952,267.964093 95.6514286,267.874327 96.9695238,267.667864 C96.9771429,266.231598 96.992381,264.795332 97,263.37702 C96.5733333,263.278276 95.727619,263.089767 95.3009524,263 C95.3847619,263.754039 95.552381,265.262118 95.6361905,266.016158 Z M68.9349112,332.280721 C67.1153846,340.400692 67.7100592,348.76024 67,357 C69.5207101,350.805207 72.4585799,344.78154 74.9615385,338.57819 C75.387574,338.706536 76.2485207,338.95467 76.6745562,339.083015 C77.3224852,333.624067 78.5650888,328.23357 79,322.75751 C78.5118343,325.709448 77.5,328.550155 75.591716,330.963044 C75.3786982,323.844165 78.6094675,317.076097 78.387574,310 C76.7366864,312.498453 76.0088757,315.433279 74.4378698,317.983069 C71.739645,322.406699 70.5769231,327.454943 68.9349112,332.280721 Z M98.4464378,330.376293 C98.5578898,344.409104 98.4550111,358.450488 98.377852,372.491871 L98.0092032,373.074786 C97.9491906,378.56104 97.7948725,384.055868 97.5805418,389.542122 C96.7060725,394.92551 97.2633323,400.411765 96.6289134,405.838014 C95.8401764,412.541531 96.1916788,419.339344 95,426 C95.5572598,425.871416 96.6717795,425.614248 97.2376126,425.485664 L96.1659591,425.588531 C96.1745323,423.411174 96.5346079,421.293822 97.100441,419.21076 C98.2149607,418.730712 99.3723465,418.404966 100.564025,418.182087 C101.309896,406.360922 101.069846,394.505469 101.438495,382.667159 C101.618532,362.385161 103.598948,342.12888 102.818784,321.838309 C102.252951,317.509311 102.167219,311.225835 96.8946835,310 C97.6919937,316.763523 98.5321701,323.552764 98.4464378,330.376293 Z M88.773801,419 C91.3163923,396.077674 91.642806,373.00863 93,350 C89.0314961,372.55122 84.9513243,395.093809 81,417.653659 C83.5855404,418.12833 86.1624911,418.646154 88.773801,419 Z M62.9564439,385.390935 C63.7171838,384.728045 64.9343675,384.311615 65.0775656,383.215297 C66.9212411,375.855524 68.048926,368.342776 70,361 C63.3412888,370.17847 59.949284,380.98017 55,391 C57.5328162,388.977337 60.2625298,387.209632 62.9564439,385.390935 Z M51.8390194,441.577663 C50.8030902,445.992234 51.0270749,450.517382 51.0084095,455 C51.5123751,454.77034 52.5016408,454.319527 53.0056063,454.089867 C53.6215642,444.452663 55.9080746,434.926036 57,425.322855 C56.2907151,423.664201 54.3681799,422.651997 53.108266,421.316568 C54.3681799,420.372411 56.020067,419.453772 56.1880555,417.820636 C56.5426979,414.503328 54.0975317,411.713388 52.3709831,409 C49.0765416,419.742973 53.8268835,430.715607 51.8390194,441.577663 Z M75.4508929,472.221122 C74.3896684,483.10165 74.0248724,494.067987 74,505 C76.5867347,497.929373 77.6396684,490.361056 79.2978316,483.015842 C82.7633929,464.49835 84.5707908,445.706271 87,427.034323 C85.5822704,427.017162 84.1728316,427 82.7716837,427 C79.057398,441.819142 77.1007653,457.024422 75.4508929,472.221122 Z M50.3212341,460.921243 C48.7604356,459.865475 47.1905626,458.835249 45.6388385,457.787995 C46.600726,459.618561 47.707804,461.500213 47.6442831,463.61175 C46.6279492,465.833972 44.0961887,466.753512 42,467.86888 C43.76951,467.98808 45.53902,468.132822 47.3176044,468.286079 C46.9183303,470.320988 46.4827586,472.355896 46.1288566,474.407833 C46.7731397,474.808003 48.0435572,475.59983 48.6787659,476 C49.9491833,469.350362 50.7295826,462.641124 52,456 C50.784029,457.370796 50.6116152,459.209877 50.3212341,460.921243 Z" id="Cyclist"></path>
            <path d="M275.371117,98.5376358 C275.371117,96.2883631 275.163279,94.2564964 274.747604,92.4420357 C274.33193,90.6275749 273.491456,88.9492989 272.226185,87.4072075 C270.960913,85.8651161 269.118415,84.3270302 266.698689,82.7929497 C264.278962,81.2588692 261.138036,79.6676 257.275909,78.0191422 C252.611806,76.0849635 248.120159,74.0150452 243.800968,71.8093872 C239.481777,69.6037292 235.58961,67.0502663 232.124466,64.1489983 C228.659322,61.2477303 225.919384,57.8141848 223.904652,53.848362 C221.889919,49.8825391 220.882553,45.2280045 220.882553,39.884758 C220.882553,34.6394221 221.83006,29.8845291 223.725075,25.620079 C225.620089,21.355629 228.326871,17.6995595 231.845421,14.6518707 C235.36397,11.6041819 239.514711,9.25477346 244.297642,7.60364532 C249.080573,5.95251719 254.379537,5.12695312 260.194534,5.12695312 C268.184926,5.12695312 275.097635,6.77207311 280.932659,10.0623131 C286.767684,13.352553 291.292709,17.8795815 294.507736,23.6433983 C297.722763,29.4072151 299.330276,36.0270818 299.330276,43.5029984 L274.433846,43.5029984 C274.433846,39.9853388 273.934279,36.8744532 272.935146,34.1703415 C271.936014,31.4662298 270.357428,29.3435733 268.19939,27.802372 C266.041353,26.2611707 263.246229,25.4905701 259.814018,25.4905701 C256.629255,25.4905701 253.99457,26.1334419 251.909966,27.4191856 C249.825361,28.7049294 248.282602,30.4392815 247.281689,32.622242 C246.280776,34.8052025 245.780319,37.2656504 245.780319,40.0035858 C245.780319,42.0659383 246.286116,43.8973109 247.29771,45.4977036 C248.309305,47.0980962 249.689843,48.5527356 251.439327,49.8616219 C253.188811,51.1705081 255.282094,52.4224281 257.719177,53.617382 C260.15626,54.812336 262.827438,55.9701284 265.732712,57.0907593 C271.352778,59.3284607 276.323297,61.7619832 280.644268,64.3913269 C284.965239,67.0206706 288.583925,69.9782372 291.500324,73.2640266 C294.416724,76.5498161 296.620824,80.2492778 298.112625,84.3624115 C299.604426,88.4755452 300.350327,93.1436539 300.350327,98.3667374 C300.350327,103.561338 299.443764,108.272839 297.630638,112.50124 C295.817513,116.729641 293.210866,120.367018 289.810699,123.413372 C286.410533,126.459726 282.298512,128.81225 277.474636,130.470943 C272.650761,132.129637 267.283704,132.958984 261.373466,132.958984 C255.604754,132.958984 250.158257,132.15189 245.033974,130.537701 C239.909691,128.923512 235.400242,126.439921 231.505627,123.086929 C227.611012,119.733938 224.553087,115.481281 222.331852,110.32896 C220.110617,105.17664 219,99.0819295 219,92.0448303 L243.985886,92.0448303 C243.985886,95.7814535 244.353273,98.9764531 245.088047,101.629829 C245.822821,104.283206 246.963257,106.400967 248.509354,107.983112 C250.05545,109.565258 251.948462,110.729949 254.188389,111.477184 C256.428315,112.22442 259.018272,112.598038 261.95826,112.598038 C265.258736,112.598038 267.887634,111.978308 269.844955,110.73885 C271.802277,109.499391 273.212634,107.816664 274.076027,105.69067 C274.93942,103.564676 275.371117,101.180331 275.371117,98.5376358 Z M331.992384,0 L331.992384,131.25 L308.067937,131.25 L308.067937,0 L331.992384,0 Z M328.549047,81.8336487 L322.114988,82.0339203 C322.074934,75.5388896 322.718473,69.5569992 324.045606,64.0882492 C325.372739,58.6194992 327.330506,53.8579305 329.918905,49.8035431 C332.507304,45.7491557 335.635992,42.6157951 339.304967,40.4034615 C342.973943,38.1911278 347.027441,37.0849609 351.465459,37.0849609 C355.280411,37.0849609 358.760464,37.7402941 361.905618,39.0509605 C365.050773,40.3616269 367.777359,42.4188614 370.085378,45.2226639 C372.393397,48.0264664 374.165801,51.7090162 375.402589,56.2703133 C376.639378,60.8316104 377.257772,66.3722356 377.257772,72.892189 L377.257772,131.25 L353.27458,131.25 L353.27458,72.7212906 C353.27458,68.7238693 352.873146,65.5893962 352.07028,63.3178711 C351.267413,61.046346 350.068009,59.442838 348.472066,58.5073471 C346.876124,57.5718562 344.88765,57.1041107 342.506643,57.1041107 C339.930705,57.1041107 337.751082,57.7285131 335.967775,58.9773178 C334.184468,60.2261225 332.74407,61.9762739 331.646581,64.2277718 C330.549093,66.4792697 329.758465,69.1050529 329.274698,72.1051216 C328.790931,75.1051903 328.549047,78.3480326 328.549047,81.8336487 Z M424.746906,132.958984 C418.431675,132.958984 412.838979,131.991673 407.968818,130.057049 C403.098658,128.122425 398.981296,125.319068 395.616733,121.646976 C392.25217,117.974885 389.695592,113.510386 387.946998,108.253479 C386.198405,102.996572 385.324108,97.0186869 385.324108,90.3198242 L385.324108,82.7135086 C385.324108,75.1797358 386.176375,68.5761134 387.880909,62.9026413 C389.585443,57.2291692 392.008729,52.4667104 395.150768,48.6152649 C398.292807,44.7638194 402.151596,41.8792407 406.727134,39.9615288 C411.302673,38.0438169 416.480139,37.0849609 422.259533,37.0849609 C428.086991,37.0849609 433.204821,38.0364736 437.613022,39.9394989 C442.021222,41.8425242 445.690198,44.6946144 448.619949,48.4957695 C451.5497,52.2969246 453.744009,56.9879532 455.202877,62.5688553 C456.661744,68.1497574 457.391178,74.6265411 457.391178,81.9992065 L457.391178,93.0088043 L395.477878,93.0088043 L395.477878,76.1312485 L433.930027,76.1312485 L433.930027,73.9683151 C433.894423,70.2112198 433.479416,67.0749664 432.685005,64.5595551 C431.890594,62.0441437 430.64446,60.1542473 428.946602,58.8898659 C427.248743,57.6254845 424.989457,56.9932938 422.168743,56.9932938 C419.741451,56.9932938 417.697568,57.4846268 416.037094,58.4672928 C414.37662,59.4499588 413.06306,60.9617869 412.096416,63.0027771 C411.129772,65.0437673 410.427486,67.6951408 409.989559,70.9568977 C409.551632,74.2186546 409.332668,78.1375249 409.332668,82.7135086 L409.332668,90.3198242 C409.332668,94.5638021 409.706063,98.1368701 410.452854,101.039028 C411.199644,103.941186 412.291792,106.283029 413.729297,108.064556 C415.166802,109.846083 416.935201,111.126932 419.034492,111.907101 C421.133784,112.68727 423.58177,113.077354 426.378452,113.077354 C430.607298,113.077354 434.410234,112.323221 437.787258,110.814953 C441.164282,109.306685 444.075341,107.232984 446.520435,104.593849 L456.089412,119.129562 C454.403571,121.288935 452.110683,123.442968 449.21075,125.59166 C446.310817,127.740351 442.8321,129.505412 438.774597,130.886841 C434.717094,132.26827 430.041197,132.958984 424.746906,132.958984 Z M222.781128,183.835938 L262.743324,183.835938 C271.04258,183.835938 278.129747,185.260091 284.004826,188.108398 C289.879904,190.956706 294.381565,195.167528 297.509808,200.740864 C300.63805,206.3142 302.202171,213.212222 302.202171,221.434929 C302.202171,228.151594 301.291158,233.888707 299.469131,238.646271 C297.647105,243.403834 295.057593,247.362536 291.700596,250.522377 C288.343599,253.682218 284.324593,256.194959 279.643578,258.0606 L272.006554,262.652161 L239.617294,262.652161 L239.53051,241.88533 L262.058395,241.88533 C265.471024,241.88533 268.303977,241.128749 270.557255,239.615585 C272.810533,238.102422 274.493482,235.959293 275.606102,233.186199 C276.718722,230.413105 277.275032,227.168928 277.275032,223.453667 C277.275032,219.534574 276.76968,216.169788 275.758976,213.35931 C274.748272,210.548832 273.178588,208.391462 271.049923,206.887199 C268.921258,205.382937 266.152392,204.630806 262.743324,204.630806 L247.817749,204.630806 L247.817749,308.25 L222.781128,308.25 L222.781128,183.835938 Z M279.300446,308.25 L256.456131,252.780106 L282.677025,252.720024 L306.059402,307.051041 L306.059402,308.25 L279.300446,308.25 Z M336.197971,215.793945 L336.197971,308.25 L312.192081,308.25 L312.192081,215.793945 L336.197971,215.793945 Z M311.07323,191.816093 C311.07323,188.099943 312.25817,185.041573 314.628051,182.640984 C316.997932,180.240395 320.194489,179.0401 324.217723,179.0401 C328.224045,179.0401 331.393232,180.240395 333.725284,182.640984 C336.057335,185.041573 337.223361,188.099943 337.223361,191.816093 C337.223361,195.496641 336.057335,198.546555 333.725284,200.965836 C331.393232,203.385117 328.224045,204.594757 324.217723,204.594757 C320.194489,204.594757 316.997932,203.385117 314.628051,200.965836 C312.25817,198.546555 311.07323,195.496641 311.07323,191.816093 Z M392.703913,287.855675 L392.703913,177 L416.68577,177 L416.68577,308.25 L395.003031,308.332779 L392.703913,287.855675 Z M344.713496,265.271713 L344.713496,259.144737 C344.713496,251.605624 345.358593,245.017801 346.648787,239.381268 C347.938981,233.744734 349.869822,229.039242 352.441309,225.26479 C355.012797,221.490337 358.161066,218.68342 361.886118,216.844036 C365.61117,215.004653 369.896538,214.084961 374.74222,214.084961 C379.141075,214.084961 383.002534,215.174661 386.326598,217.354061 C389.650661,219.533461 392.476939,222.596504 394.80543,226.54319 C397.133921,230.489876 399.009353,235.139292 400.431727,240.49144 C401.8541,245.843587 402.870145,251.70932 403.479861,258.088638 L403.479861,266.996719 C402.774015,273.032461 401.719696,278.662763 400.316904,283.887627 C398.914113,289.11249 397.034453,293.674232 394.677924,297.572853 C392.321394,301.471474 389.494894,304.510484 386.198424,306.689884 C382.901953,308.869284 379.053845,309.958984 374.654101,309.958984 C369.844022,309.958984 365.572896,308.99234 361.840723,307.059052 C358.108551,305.125763 354.966067,302.266997 352.413271,298.482754 C349.860476,294.69851 347.938981,290.026174 346.648787,284.465744 C345.358593,278.905314 344.713496,272.507304 344.713496,265.271713 Z M368.66331,259.144737 L368.66331,265.271713 C368.66331,269.570877 368.883386,273.275679 369.323538,276.38612 C369.763691,279.49656 370.482221,282.038897 371.479128,284.01313 C372.476036,285.987363 373.798719,287.450236 375.447176,288.401749 C377.095634,289.353261 379.136179,289.829018 381.568812,289.829018 C384.742004,289.829018 387.325285,289.01369 389.318655,287.383034 C391.312025,285.752378 392.807387,283.502438 393.804739,280.633213 C394.802092,277.763988 395.368861,274.437032 395.505045,270.652344 L395.505045,254.511787 C395.420486,251.349276 395.058885,248.517658 394.420241,246.016933 C393.781597,243.516209 392.896174,241.378866 391.763972,239.604904 C390.63177,237.830943 389.220745,236.470654 387.530898,235.524036 C385.84105,234.577419 383.882616,234.104111 381.655596,234.104111 C379.244326,234.104111 377.209789,234.588991 375.551985,235.55875 C373.894181,236.52851 372.571499,238.018976 371.583937,240.030148 C370.596376,242.04132 369.862714,244.635727 369.382952,247.81337 C368.90319,250.991013 368.66331,254.768135 368.66331,259.144737 Z M464.598459,309.958984 C458.283228,309.958984 452.690532,308.991673 447.820371,307.057049 C442.950211,305.122425 438.832849,302.319068 435.468286,298.646976 C432.103723,294.974885 429.547145,290.510386 427.798551,285.253479 C426.049958,279.996572 425.175661,274.018687 425.175661,267.319824 L425.175661,259.713509 C425.175661,252.179736 426.027928,245.576113 427.732462,239.902641 C429.436996,234.229169 431.860282,229.46671 435.002321,225.615265 C438.14436,221.763819 442.003149,218.879241 446.578687,216.961529 C451.154226,215.043817 456.331692,214.084961 462.111086,214.084961 C467.938544,214.084961 473.056374,215.036474 477.464575,216.939499 C481.872775,218.842524 485.541751,221.694614 488.471502,225.49577 C491.401253,229.296925 493.595562,233.987953 495.05443,239.568855 C496.513297,245.149757 497.242731,251.626541 497.242731,258.999207 L497.242731,270.008804 L435.329431,270.008804 L435.329431,253.131248 L473.78158,253.131248 L473.78158,250.968315 C473.745976,247.21122 473.330969,244.074966 472.536558,241.559555 C471.742147,239.044144 470.496013,237.154247 468.798155,235.889866 C467.100296,234.625484 464.84101,233.993294 462.020296,233.993294 C459.593004,233.993294 457.549121,234.484627 455.888647,235.467293 C454.228173,236.449959 452.914613,237.961787 451.947969,240.002777 C450.981325,242.043767 450.279039,244.695141 449.841112,247.956898 C449.403185,251.218655 449.184221,255.137525 449.184221,259.713509 L449.184221,267.319824 C449.184221,271.563802 449.557616,275.13687 450.304407,278.039028 C451.051197,280.941186 452.143345,283.283029 453.58085,285.064556 C455.018355,286.846083 456.786754,288.126932 458.886045,288.907101 C460.985337,289.68727 463.433323,290.077354 466.230005,290.077354 C470.458851,290.077354 474.261787,289.323221 477.638811,287.814953 C481.015835,286.306685 483.926894,284.232984 486.371988,281.593849 L495.940965,296.129562 C494.255124,298.288935 491.962236,300.442968 489.062303,302.59166 C486.16237,304.740351 482.683653,306.505412 478.62615,307.886841 C474.568647,309.26827 469.89275,309.958984 464.598459,309.958984 Z M544.899728,283.262779 C544.899728,281.668617 544.352541,280.244686 543.258168,278.990986 C542.163795,277.737286 540.451473,276.441083 538.121202,275.102379 C535.79093,273.763674 532.700962,272.267868 528.851296,270.61496 C524.614439,268.926448 520.873143,267.174961 517.627408,265.3605 C514.381673,263.54604 511.631499,261.527747 509.376885,259.305622 C507.122272,257.083497 505.431757,254.550729 504.305341,251.707317 C503.178924,248.863906 502.615716,245.597031 502.615716,241.906693 C502.615716,238.010742 503.332688,234.395172 504.766633,231.059982 C506.200578,227.724792 508.295864,224.793261 511.052491,222.265388 C513.809119,219.737516 517.155657,217.742143 521.092107,216.27927 C525.028557,214.816397 529.479704,214.084961 534.44555,214.084961 C541.386519,214.084961 547.348827,215.294601 552.332475,217.713882 C557.316122,220.133163 561.154217,223.508853 563.846757,227.84095 C566.539297,232.173047 567.885568,237.228348 567.885568,243.006851 L543.962457,243.006851 C543.962457,240.931147 543.64358,239.083975 543.005826,237.465336 C542.368072,235.846696 541.348022,234.58009 539.945676,233.665516 C538.54333,232.750942 536.690817,232.293655 534.388139,232.293655 C532.648001,232.293655 531.118594,232.661488 529.799916,233.397152 C528.481239,234.132816 527.438714,235.120378 526.672341,236.359837 C525.905969,237.599295 525.522782,239.045924 525.522782,240.699722 C525.522782,241.932505 525.792704,243.031551 526.332547,243.996861 C526.87239,244.96217 527.741347,245.903224 528.939416,246.820023 C530.137485,247.736821 531.736988,248.686109 533.737924,249.667885 C535.73886,250.649661 538.240029,251.753825 541.241433,252.980377 C547.359953,255.267034 552.409246,257.719916 556.38931,260.339024 C560.369374,262.958131 563.321155,266.013831 565.244653,269.506123 C567.16815,272.998414 568.129899,277.317828 568.129899,282.464363 C568.129899,286.548124 567.349952,290.270505 565.790059,293.631508 C564.230166,296.99251 561.972215,299.898674 559.016206,302.349998 C556.060197,304.801323 552.513832,306.682318 548.377111,307.992985 C544.240389,309.303651 539.622794,309.958984 534.524324,309.958984 C527.055528,309.958984 520.759879,308.476752 515.637376,305.512287 C510.514873,302.547822 506.647183,298.748225 504.034307,294.113495 C501.42143,289.478765 500.114991,284.65578 500.114991,279.644539 L522.816445,279.644539 C522.965982,282.692228 523.558563,285.087699 524.59419,286.830952 C525.629816,288.574205 527.057308,289.792301 528.876664,290.485241 C530.69602,291.178181 532.724549,291.524651 534.962251,291.524651 C537.220424,291.524651 539.069599,291.2169 540.509774,290.601398 C541.94995,289.985897 543.041652,289.049071 543.784883,287.79092 C544.528113,286.53277 544.899728,285.023389 544.899728,283.262779 Z M275.371117,452.537636 C275.371117,450.288363 275.163279,448.256496 274.747604,446.442036 C274.33193,444.627575 273.491456,442.949299 272.226185,441.407207 C270.960913,439.865116 269.118415,438.32703 266.698689,436.79295 C264.278962,435.258869 261.138036,433.6676 257.275909,432.019142 C252.611806,430.084963 248.120159,428.015045 243.800968,425.809387 C239.481777,423.603729 235.58961,421.050266 232.124466,418.148998 C228.659322,415.24773 225.919384,411.814185 223.904652,407.848362 C221.889919,403.882539 220.882553,399.228004 220.882553,393.884758 C220.882553,388.639422 221.83006,383.884529 223.725075,379.620079 C225.620089,375.355629 228.326871,371.69956 231.845421,368.651871 C235.36397,365.604182 239.514711,363.254773 244.297642,361.603645 C249.080573,359.952517 254.379537,359.126953 260.194534,359.126953 C268.184926,359.126953 275.097635,360.772073 280.932659,364.062313 C286.767684,367.352553 291.292709,371.879581 294.507736,377.643398 C297.722763,383.407215 299.330276,390.027082 299.330276,397.502998 L274.433846,397.502998 C274.433846,393.985339 273.934279,390.874453 272.935146,388.170341 C271.936014,385.46623 270.357428,383.343573 268.19939,381.802372 C266.041353,380.261171 263.246229,379.49057 259.814018,379.49057 C256.629255,379.49057 253.99457,380.133442 251.909966,381.419186 C249.825361,382.704929 248.282602,384.439281 247.281689,386.622242 C246.280776,388.805202 245.780319,391.26565 245.780319,394.003586 C245.780319,396.065938 246.286116,397.897311 247.29771,399.497704 C248.309305,401.098096 249.689843,402.552736 251.439327,403.861622 C253.188811,405.170508 255.282094,406.422428 257.719177,407.617382 C260.15626,408.812336 262.827438,409.970128 265.732712,411.090759 C271.352778,413.328461 276.323297,415.761983 280.644268,418.391327 C284.965239,421.020671 288.583925,423.978237 291.500324,427.264027 C294.416724,430.549816 296.620824,434.249278 298.112625,438.362411 C299.604426,442.475545 300.350327,447.143654 300.350327,452.366737 C300.350327,457.561338 299.443764,462.272839 297.630638,466.50124 C295.817513,470.729641 293.210866,474.367018 289.810699,477.413372 C286.410533,480.459726 282.298512,482.81225 277.474636,484.470943 C272.650761,486.129637 267.283704,486.958984 261.373466,486.958984 C255.604754,486.958984 250.158257,486.15189 245.033974,484.537701 C239.909691,482.923512 235.400242,480.439921 231.505627,477.086929 C227.611012,473.733938 224.553087,469.481281 222.331852,464.32896 C220.110617,459.17664 219,453.08193 219,446.04483 L243.985886,446.04483 C243.985886,449.781453 244.353273,452.976453 245.088047,455.629829 C245.822821,458.283206 246.963257,460.400967 248.509354,461.983112 C250.05545,463.565258 251.948462,464.729949 254.188389,465.477184 C256.428315,466.22442 259.018272,466.598038 261.95826,466.598038 C265.258736,466.598038 267.887634,465.978308 269.844955,464.73885 C271.802277,463.499391 273.212634,461.816664 274.076027,459.69067 C274.93942,457.564676 275.371117,455.180331 275.371117,452.537636 Z M348.999448,392.793945 L348.999448,410.838417 L301.800771,410.838417 L301.800771,392.793945 L348.999448,392.793945 Z M312.702222,369.973663 L336.54389,369.973663 L336.54389,457.011703 C336.54389,459.569839 336.793339,461.545853 337.292238,462.939743 C337.791137,464.333633 338.576646,465.296495 339.648767,465.828327 C340.720888,466.36016 342.105655,466.626076 343.803068,466.626076 C345.059883,466.626076 346.189415,466.555758 347.191663,466.415123 C348.193911,466.274488 348.9723,466.118721 349.52683,465.947823 L349.466749,484.64518 C347.631371,485.369718 345.664926,485.936487 343.567415,486.345486 C341.469904,486.754485 338.997439,486.958984 336.150022,486.958984 C331.359525,486.958984 327.220134,486.054869 323.731847,484.246639 C320.243561,482.438409 317.533219,479.514444 315.60082,475.474743 C313.668422,471.435042 312.702222,466.137413 312.702222,459.581856 L312.702222,369.973663 Z M437.148467,391.084961 C442.926081,391.084961 448.109333,392.066292 452.698223,394.028954 C457.287113,395.991615 461.220447,398.869741 464.498226,402.66333 C467.776004,406.456919 470.284517,411.143275 472.023765,416.722397 C473.763013,422.301519 474.632636,428.718666 474.632636,435.973839 L474.632636,442.155556 C474.632636,449.372454 473.763013,455.766237 472.023765,461.336903 C470.284517,466.907569 467.776227,471.599265 464.498893,475.411991 C461.22156,479.224717 457.292676,482.102398 452.712242,484.045033 C448.131807,485.987667 443.000849,486.958984 437.319366,486.958984 C431.637883,486.958984 426.497356,485.987667 421.897785,484.045033 C417.298213,482.102398 413.345519,479.224717 410.039703,475.411991 C406.733886,471.599265 404.211354,466.907569 402.472106,461.336903 C400.732859,455.766237 399.863235,449.372454 399.863235,442.155556 L399.863235,435.973839 C399.863235,428.718666 400.732859,422.301519 402.472106,416.722397 C404.211354,411.143275 406.715417,406.456919 409.984294,402.66333 C413.253172,398.869741 417.182056,395.991615 421.770946,394.028954 C426.359836,392.066292 431.485677,391.084961 437.148467,391.084961 Z M394.128959,391.084961 C395.233569,391.084961 396.426297,391.184207 397.707145,391.382698 C398.987994,391.581189 400.001368,391.814395 400.747268,392.082314 L400.460212,415.944008 C399.377856,415.719704 398.07787,415.549695 396.560257,415.433983 C395.042643,415.31827 393.714175,415.260414 392.574852,415.260414 C389.919695,415.260414 387.649505,415.676757 385.764282,416.509441 C383.879059,417.342126 382.3205,418.572684 381.088608,420.201115 C380.233461,421.331526 379.527363,422.640582 378.970313,424.12828 L378.971069,485.25 L355.045288,485.25 L355.045288,392.793945 L377.63993,392.793945 L378.287,402.821 L378.532786,402.342585 C380.351125,398.862375 382.527529,396.139452 385.061996,394.173817 C387.717153,392.11458 390.739474,391.084961 394.128959,391.084961 Z M437.148467,410.993294 C435.075434,410.993294 433.224257,411.516225 431.594936,412.562088 C429.965615,413.607951 428.562824,415.151155 427.386562,417.1917 C426.2103,419.232245 425.33044,421.821757 424.746982,424.960236 C424.163524,428.098714 423.871795,431.769915 423.871795,435.973839 L423.871795,442.155556 C423.871795,446.453829 424.163524,450.1682 424.746982,453.298668 C425.33044,456.429136 426.210522,459.018648 427.387229,461.067204 C428.563936,463.11576 429.980969,464.625362 431.638328,465.596012 C433.295687,466.566662 435.189366,467.051987 437.319366,467.051987 C439.516123,467.051987 441.45809,466.566662 443.145267,465.596012 C444.832444,464.625362 446.23034,463.11576 447.338954,461.067204 C448.447569,459.018648 449.282034,456.429136 449.842349,453.298668 C450.402665,450.1682 450.682823,446.453829 450.682823,442.155556 L450.682823,435.973839 C450.682823,431.769915 450.372847,428.098714 449.752895,424.960236 C449.132943,421.821757 448.24841,419.232245 447.099296,417.1917 C445.950182,415.151155 444.536932,413.607951 442.859546,412.562088 C441.18216,411.516225 439.278467,410.993294 437.148467,410.993294 Z M505.953367,412.532715 L505.953367,485.25 L481.944807,485.25 L481.944807,392.793945 L504.377897,392.793945 L505.953367,412.532715 Z M502.427251,435.833649 L495.991857,436.03392 C495.896617,429.097402 496.565079,422.865617 497.997243,417.338566 C499.429408,411.811515 501.497546,407.092893 504.201658,403.182701 C506.90577,399.272509 510.145942,396.278671 513.922174,394.201187 C517.698406,392.123703 521.9297,391.084961 526.616056,391.084961 C530.238747,391.084961 533.545231,391.706916 536.535509,392.950825 C539.525786,394.194734 542.103282,396.194112 544.267995,398.948959 C546.432709,401.703807 548.10876,405.332951 549.296148,409.836391 C550.483536,414.339832 551.07723,419.879122 551.07723,426.454262 L551.07723,485.25 L527.094038,485.25 L527.094038,426.257996 C527.094038,422.298848 526.688376,419.222232 525.877054,417.028145 C525.065731,414.834058 523.875895,413.298197 522.307546,412.420563 C520.739197,411.542928 518.736926,411.104111 516.300733,411.104111 C514.05057,411.104111 512.039398,411.728513 510.267217,412.977318 C508.495036,414.226123 507.02126,415.976274 505.845888,418.227772 C504.670516,420.47927 503.792881,423.105053 503.212984,426.105122 C502.633086,429.10519 502.371175,432.348033 502.427251,435.833649 Z M609.927657,392.793945 L631.670477,392.793945 L631.670477,485.25267 C631.670477,493.669418 630.062296,500.566327 626.845934,505.943398 C623.629572,511.320468 619.156617,515.287403 613.427069,517.844204 C607.697521,520.401005 601.006224,521.679405 593.353178,521.679405 C590.472828,521.679405 587.229095,521.274412 583.621981,520.464424 C580.014867,519.654437 576.529251,518.445241 573.165133,516.836838 C569.801015,515.228434 567.029033,513.275119 564.849188,510.976891 L572.966864,494.370369 C575.171632,496.618752 578.07824,498.520219 581.68669,500.074772 C585.295139,501.629325 588.82437,502.406601 592.274382,502.406601 C595.626484,502.406601 598.433624,501.885227 600.695803,500.84248 C602.957982,499.799732 604.675422,498.028219 605.848124,495.527939 C607.020825,493.027659 607.607176,489.646629 607.607176,485.38485 L607.607176,414.256386 L609.927657,392.793945 Z M558.367064,442.271713 L558.367064,436.144737 C558.367064,428.605624 559.070685,422.017801 560.477927,416.381268 C561.885168,410.744734 563.93862,406.039242 566.638281,402.26479 C569.337942,398.490337 572.62618,395.68342 576.502993,393.844036 C580.379806,392.004653 584.759301,391.084961 589.641478,391.084961 C594.718586,391.084961 598.967682,392.174661 602.388766,394.354061 C605.80985,396.533461 608.578271,399.596504 610.694029,403.54319 C612.809787,407.489876 614.45335,412.139292 615.624716,417.49144 C616.796083,422.843587 617.706651,428.70932 618.356421,435.088638 L618.356421,443.996719 C617.723563,450.032461 616.70685,455.662763 615.306284,460.887627 C613.905718,466.11249 612.065445,470.674232 609.785464,474.572853 C607.505483,478.471474 604.711694,481.510484 601.404097,483.689884 C598.0965,485.869284 594.118661,486.958984 589.470579,486.958984 C584.662281,486.958984 580.334189,485.99234 576.486304,484.059052 C572.638419,482.125763 569.360417,479.266997 566.6523,475.482754 C563.944183,471.69851 561.886281,467.026174 560.478594,461.465744 C559.070907,455.905314 558.367064,449.507304 558.367064,442.271713 Z M582.375624,436.144737 L582.375624,442.271713 C582.375624,446.570877 582.649329,450.275679 583.196738,453.38612 C583.744147,456.49656 584.58462,459.038897 585.718157,461.01313 C586.851694,462.987363 588.314345,464.450236 590.106108,465.401749 C591.897871,466.353261 594.010069,466.829018 596.442702,466.829018 C599.924757,466.829018 602.701189,466.01369 604.771998,464.383034 C606.842806,462.752378 608.376887,460.502438 609.374239,457.633213 C610.371592,454.763988 610.938361,451.437032 611.074545,447.652344 L611.074545,431.511787 C611.006898,428.349276 610.654197,425.517658 610.016444,423.016933 C609.37869,420.516209 608.479248,418.378866 607.318117,416.604904 C606.156987,414.830943 604.683433,413.470654 602.897456,412.524036 C601.111478,411.577419 599.016859,411.104111 596.6136,411.104111 C594.20233,411.104111 592.100591,411.588991 590.308382,412.55875 C588.516174,413.52851 587.03906,415.018976 585.877039,417.030148 C584.715019,419.04132 583.840945,421.635727 583.254816,424.81337 C582.668688,427.991013 582.375624,431.768135 582.375624,436.144737 Z" id="Words"></path>
        </g>
    </g>
</svg>